# Blender 4.0.1
# www.blender.org
o Cube
v -0.050000 -0.050000 -0.050000
v -0.050000 0.050000 -0.050000
v 0.050000 -0.050000 -0.050000
v 0.050000 0.050000 -0.050000
v -0.050000 -0.050000 0.050000
v -0.050000 0.050000 0.050000
v 0.050000 -0.050000 0.050000
v 0.050000 0.050000 0.050000
vn -0.0000 -0.0000 -1.0000
vn 1.0000 -0.0000 -0.0000
vn -0.0000 -0.0000 1.0000
vn -1.0000 -0.0000 -0.0000
vn -0.0000 -1.0000 -0.0000
vn -0.0000 1.0000 -0.0000
vt 0.975921 0.346442
vt 0.975921 0.651209
vt 0.742982 0.651209
vt 0.742982 0.346442
vt 0.262528 0.345150
vt 0.262528 0.649918
vt 0.029588 0.649918
vt 0.029588 0.345150
vt 0.501418 0.344632
vt 0.501419 0.649400
vt 0.268479 0.649400
vt 0.268479 0.344632
vt 0.739831 0.347552
vt 0.739831 0.652320
vt 0.506892 0.652320
vt 0.506892 0.347552
vt 0.500903 0.036581
vt 0.500903 0.341349
vt 0.267964 0.341349
vt 0.267964 0.036581
vt 0.501717 0.657022
vt 0.501717 0.961790
vt 0.268777 0.961790
vt 0.268777 0.657022
s 0
f 1/1/1 2/2/1 4/3/1 3/4/1
f 3/5/2 4/6/2 8/7/2 7/8/2
f 7/9/3 8/10/3 6/11/3 5/12/3
f 5/13/4 6/14/4 2/15/4 1/16/4
f 3/17/5 7/18/5 5/19/5 1/20/5
f 8/21/6 4/22/6 2/23/6 6/24/6
