# Blender 4.0.1
# www.blender.org
o Cube.001
v -0.039824 0.373779 0.028160
v 0.000000 0.413603 0.028160
v -0.039824 0.373779 -0.028160
v 0.000000 0.413603 -0.028160
v -0.000000 0.333956 0.028160
v 0.039824 0.373779 0.028160
v -0.000000 0.333956 -0.028160
v 0.039824 0.373779 -0.028160
v -0.090043 0.423998 0.028160
v -0.050219 0.463822 0.028160
v -0.050219 0.463822 -0.028160
v -0.090043 0.423998 -0.028160
v 0.050219 0.283736 -0.028160
v 0.090043 0.323560 -0.028160
v 0.090043 0.323560 0.028160
v 0.050219 0.283736 0.028160
v -0.090043 0.323560 -0.028160
v -0.050219 0.283736 -0.028160
v -0.050219 0.283736 0.028160
v -0.090043 0.323560 0.028160
v 0.090043 0.423998 -0.028160
v 0.050219 0.463822 -0.028160
v 0.050219 0.463822 0.028160
v 0.090043 0.423998 0.028160
vn -0.0000 -0.0000 -1.0000
vn -0.0000 -0.0000 1.0000
vn -0.7071 0.7071 -0.0000
vn 0.7071 0.7071 -0.0000
vn -0.7071 -0.7071 -0.0000
vn 0.7071 -0.7071 -0.0000
vt 0.938082 0.742133
vt 0.951731 0.742133
vt 0.951731 0.755782
vt 0.938082 0.755782
vt 0.938082 0.769432
vt 0.951731 0.769432
vt 0.951731 0.783081
vt 0.938082 0.783081
vt 0.938082 0.728484
vt 0.951731 0.728484
vt 0.924433 0.755782
vt 0.924433 0.769432
vt 0.965380 0.755782
vt 0.965380 0.769432
s 0
f 3/1/1 4/2/1 8/3/1 7/4/1
f 5/5/2 6/6/2 2/7/2 1/8/2
f 9/9/3 10/10/3 11/2/3 12/1/3
f 2/10/2 10/10/2 9/9/2 1/9/2
f 4/2/4 11/2/4 10/10/4 2/10/4
f 3/1/1 12/1/1 11/2/1 4/2/1
f 1/9/5 9/9/5 12/1/5 3/1/5
f 13/4/6 14/3/6 15/6/6 16/5/6
f 8/3/1 14/3/1 13/4/1 7/4/1
f 6/6/4 15/6/4 14/3/4 8/3/4
f 5/5/2 16/5/2 15/6/2 6/6/2
f 7/4/5 13/4/5 16/5/5 5/5/5
f 17/11/5 18/4/5 19/5/5 20/12/5
f 7/4/1 18/4/1 17/11/1 3/11/1
f 5/5/6 19/5/6 18/4/6 7/4/6
f 1/12/2 20/12/2 19/5/2 5/5/2
f 3/11/3 17/11/3 20/12/3 1/12/3
f 21/3/4 22/13/4 23/14/4 24/6/4
f 4/13/1 22/13/1 21/3/1 8/3/1
f 2/14/3 23/14/3 22/13/3 4/13/3
f 6/6/2 24/6/2 23/14/2 2/14/2
f 8/3/6 21/3/6 24/6/6 6/6/6
