# Blender 3.5.1
# www.blender.org
mtllib R1_Celling.mtl
o R1_Celling
v 0.100000 2.700000 -0.300000
v 4.100000 2.700000 -0.300000
v 0.100000 2.700000 -4.000000
v 4.100000 2.700000 -4.000000
v 0.100000 2.750000 -0.300000
v 4.100000 2.750000 -0.300000
v 0.100000 2.750000 -0.200000
v 4.100000 2.750000 -0.200000
v 0.100000 2.700000 -0.200000
v 4.100000 2.700000 -0.200000
v 4.200000 2.700000 -0.300000
v 4.200000 2.700000 -4.000000
v 4.200000 2.700000 -0.200000
v 0.000000 2.700000 -0.300000
v 0.000000 2.700000 -4.000000
v 0.000000 2.700000 -0.200000
v 0.100000 2.700000 -0.000001
v 4.100000 2.700000 -0.000001
v 4.200000 2.700000 -0.000001
v 0.000000 2.700000 -0.000001
v 0.100000 2.800000 -0.000001
v 4.200000 2.800000 -0.000001
v 0.000000 2.800000 -0.000001
v 0.100000 2.700000 -4.100000
v 4.100000 2.700000 -4.100000
v 4.200000 2.700000 -4.100000
v 0.000000 2.700000 -4.100000
v 0.100000 2.800000 -4.100000
v 4.100000 2.800000 -4.100000
v 4.200000 2.800000 -4.100000
v 0.000000 2.800000 -4.100000
v 0.100000 2.800000 -4.000000
v 4.100000 2.800000 -4.000000
v 4.200000 2.800000 -4.000000
v 0.000000 2.800000 -4.000000
v 0.100000 2.800000 -0.300000
v 4.100000 2.800000 -0.300000
v 4.200000 2.800000 -0.300000
v 0.000000 2.800000 -0.300000
v 0.100000 2.800000 -0.200000
v 4.100000 2.800000 -0.200000
v 4.200000 2.800000 -0.200000
v 0.000000 2.800000 -0.200000
v 4.100000 2.800000 -0.000001
vn -0.0000 -1.0000 -0.0000
vn -0.0000 -0.0000 1.0000
vn -0.0000 -0.0000 -1.0000
vn 1.0000 -0.0000 -0.0000
vn -1.0000 -0.0000 -0.0000
vt 0.552473 0.003906
vt 0.483497 0.570457
vt 0.558467 0.506489
vt 0.552473 0.483497
vt 0.003906 0.570457
vt 0.524473 0.518478
vt 0.996094 0.003906
vt 0.996094 0.483497
vt 0.483497 0.564462
vt 0.986078 0.553460
vt 0.552472 0.506489
vt 0.003906 0.564462
vt 0.506488 0.553460
vt 0.518478 0.518478
vt 0.986078 0.541471
vt 0.506488 0.564462
vt 0.552472 0.494499
vt 0.506488 0.541471
vt 0.986078 0.564462
vt 0.518478 0.530468
vt 0.506488 0.570457
vt 0.558467 0.494499
vt 0.986078 0.570457
vt 0.524473 0.530468
vt 0.529481 0.039875
vt 0.529481 0.483497
vt 0.529481 0.027886
vt 0.039875 0.541471
vt 0.483496 0.541471
vt 0.027886 0.541471
vt 0.015896 0.495487
vt 0.015896 0.015896
vt 0.015896 0.003906
vt 0.529481 0.003906
vt 0.015896 0.507476
vt 0.003906 0.541471
vt 0.003906 0.495487
vt 0.518478 0.495486
vt 0.003906 0.003906
vt 0.518478 0.003906
vt 0.541470 0.003906
vt 0.003906 0.507476
vt 0.518478 0.507476
vt 0.003906 0.553460
vt 0.015896 0.518479
vt 0.495486 0.518479
vt 0.507476 0.518479
vt 0.529481 0.495486
vt 0.003906 0.518479
vt 0.495486 0.541471
vt 0.015896 0.530468
vt 0.026898 0.495486
vt 0.495486 0.530468
vt 0.026898 0.015896
vt 0.507476 0.530468
vt 0.026898 0.003906
vt 0.541470 0.495486
vt 0.003906 0.530468
vt 0.026898 0.507476
vt 0.495486 0.553460
vt 0.038888 0.495486
vt 0.038888 0.015896
vt 0.038888 0.003906
vt 0.541470 0.483497
vt 0.038888 0.507476
vt 0.483496 0.553460
vt 0.482509 0.495486
vt 0.482509 0.015896
vt 0.482509 0.003906
vt 0.541470 0.039875
vt 0.482509 0.507476
vt 0.039875 0.553460
vt 0.494499 0.495486
vt 0.494499 0.015896
vt 0.494499 0.003906
vt 0.541470 0.027886
vt 0.494499 0.507476
vt 0.027886 0.553460
vt 0.003906 0.015896
vt 0.518478 0.015896
s 0
usemtl R1_Paper
f 1/1/1 3/7/1 4/8/1 2/4/1
f 2/5/2 6/12/2 5/9/2 1/2/2
f 6/13/1 8/18/1 7/15/1 5/10/1
f 8/19/3 10/23/3 9/21/3 7/16/3
f 1/3/4 5/11/4 7/17/4 9/22/4
f 6/14/5 2/6/5 10/24/5 8/20/5
f 17/31/3 20/35/3 23/42/3 21/37/3
f 19/33/3 18/32/3 44/79/3 22/39/3
f 18/32/3 17/31/3 21/37/3 44/79/3
f 27/49/2 24/45/2 28/51/2 31/58/2
f 25/46/2 26/47/2 30/55/2 29/53/2
f 24/45/2 25/46/2 29/53/2 28/51/2
f 31/59/1 28/52/1 32/61/1 35/65/1
f 29/54/1 30/56/1 34/63/1 33/62/1
f 28/52/1 29/54/1 33/62/1 32/61/1
f 35/65/1 32/61/1 36/67/1 39/71/1
f 33/62/1 34/63/1 38/69/1 37/68/1
f 32/61/1 33/62/1 37/68/1 36/67/1
f 39/71/1 36/67/1 40/73/1 43/77/1
f 37/68/1 38/69/1 42/75/1 41/74/1
f 36/67/1 37/68/1 41/74/1 40/73/1
f 43/77/1 40/73/1 21/38/1 23/43/1
f 41/74/1 42/75/1 22/40/1 44/80/1
f 40/73/1 41/74/1 44/80/1 21/38/1
f 19/34/5 22/41/5 42/76/5 13/27/5
f 13/27/5 42/76/5 38/70/5 11/25/5
f 11/25/5 38/70/5 34/64/5 12/26/5
f 12/26/5 34/64/5 30/57/5 26/48/5
f 16/30/4 43/78/4 23/44/4 20/36/4
f 14/28/4 39/72/4 43/78/4 16/30/4
f 15/29/4 35/66/4 39/72/4 14/28/4
f 27/50/4 31/60/4 35/66/4 15/29/4
