# Blender 3.5.1
# www.blender.org
mtllib R1_Mirror.mtl
o R1_Mirror
v 4.066756 1.866599 -2.948010
v 4.090411 1.866599 -2.969392
v 4.066756 1.758786 -2.937391
v 4.090411 1.754615 -2.958363
v 4.066756 1.655116 -2.905943
v 4.090411 1.646934 -2.925698
v 4.066756 1.559573 -2.854874
v 4.090411 1.547694 -2.872653
v 4.066756 1.475829 -2.786147
v 4.090411 1.460710 -2.801267
v 4.066756 1.407103 -2.702403
v 4.090411 1.389324 -2.714283
v 4.066756 1.356034 -2.606861
v 4.090411 1.336279 -2.615043
v 4.066756 1.324586 -2.503191
v 4.090411 1.303614 -2.507362
v 4.066756 1.313967 -2.395378
v 4.090411 1.292585 -2.395378
v 4.066756 1.324586 -2.287564
v 4.090411 1.303614 -2.283393
v 4.066756 1.356034 -2.183894
v 4.090411 1.336279 -2.175712
v 4.066756 1.407103 -2.088351
v 4.090411 1.389324 -2.076472
v 4.066756 1.475829 -2.004607
v 4.090411 1.460710 -1.989488
v 4.066756 1.559573 -1.935881
v 4.090411 1.547694 -1.918102
v 4.066756 1.655116 -1.884812
v 4.090411 1.646934 -1.865057
v 4.066756 1.758786 -1.853364
v 4.090411 1.754615 -1.832392
v 4.066756 1.866599 -1.842745
v 4.090411 1.866599 -1.821363
v 4.066756 1.974413 -1.853364
v 4.090411 1.978584 -1.832392
v 4.066756 2.078083 -1.884812
v 4.090411 2.086265 -1.865057
v 4.066756 2.173625 -1.935881
v 4.090411 2.185505 -1.918102
v 4.066756 2.257369 -2.004607
v 4.090411 2.272489 -1.989488
v 4.066756 2.326096 -2.088351
v 4.090411 2.343875 -2.076472
v 4.066756 2.377165 -2.183894
v 4.090411 2.396920 -2.175712
v 4.066756 2.408613 -2.287564
v 4.090411 2.429585 -2.283393
v 4.066756 2.419232 -2.395378
v 4.090411 2.440614 -2.395378
v 4.066756 2.408613 -2.503191
v 4.090411 2.429585 -2.507362
v 4.066756 2.377165 -2.606861
v 4.090411 2.396920 -2.615043
v 4.066756 2.326096 -2.702403
v 4.090411 2.343875 -2.714283
v 4.066756 2.257369 -2.786147
v 4.090411 2.272489 -2.801267
v 4.066756 2.173625 -2.854874
v 4.090411 2.185505 -2.872653
v 4.066756 2.078083 -2.905943
v 4.090411 2.086265 -2.925698
v 4.066756 1.974413 -2.937391
v 4.090411 1.978584 -2.958363
v 4.066756 1.866599 -2.969392
v 4.066756 1.754615 -2.958363
v 4.066756 1.646934 -2.925698
v 4.066756 1.547694 -2.872653
v 4.066756 1.460710 -2.801267
v 4.066756 1.389324 -2.714283
v 4.066756 1.336279 -2.615043
v 4.066756 1.303614 -2.507362
v 4.066756 1.292585 -2.395378
v 4.066756 1.303614 -2.283393
v 4.066756 1.336279 -2.175712
v 4.066756 1.389324 -2.076472
v 4.066756 1.460710 -1.989488
v 4.066756 1.547694 -1.918102
v 4.066756 1.646934 -1.865057
v 4.066756 1.754615 -1.832392
v 4.066756 1.866599 -1.821363
v 4.066756 1.978584 -1.832392
v 4.066756 2.086265 -1.865057
v 4.066756 2.185505 -1.918102
v 4.066756 2.272489 -1.989488
v 4.066756 2.343875 -2.076472
v 4.066756 2.396920 -2.175712
v 4.066756 2.429585 -2.283393
v 4.066756 2.440614 -2.395378
v 4.066756 2.429585 -2.507362
v 4.066756 2.396920 -2.615043
v 4.066756 2.343875 -2.714283
v 4.066756 2.272489 -2.801267
v 4.066756 2.185505 -2.872653
v 4.066756 2.086265 -2.925698
v 4.066756 1.978584 -2.958363
v 4.079762 1.866599 -2.948010
v 4.079762 1.758786 -2.937391
v 4.079762 1.655116 -2.905943
v 4.079762 1.559573 -2.854874
v 4.079762 1.475829 -2.786147
v 4.079762 1.407103 -2.702403
v 4.079762 1.356034 -2.606861
v 4.079762 1.324586 -2.503191
v 4.079762 1.313967 -2.395378
v 4.079762 1.324586 -2.287564
v 4.079762 1.356034 -2.183894
v 4.079762 1.407103 -2.088351
v 4.079762 1.475829 -2.004607
v 4.079762 1.559573 -1.935881
v 4.079762 1.655116 -1.884812
v 4.079762 1.758786 -1.853364
v 4.079762 1.866599 -1.842745
v 4.079762 1.974413 -1.853364
v 4.079762 2.078083 -1.884812
v 4.079762 2.173625 -1.935881
v 4.079762 2.257369 -2.004607
v 4.079762 2.326096 -2.088351
v 4.079762 2.377165 -2.183894
v 4.079762 2.408613 -2.287564
v 4.079762 2.419232 -2.395378
v 4.079762 2.408613 -2.503191
v 4.079762 2.377165 -2.606861
v 4.079762 2.326096 -2.702403
v 4.079762 2.257369 -2.786147
v 4.079762 2.173625 -2.854874
v 4.079762 2.078083 -2.905943
v 4.079762 1.974413 -2.937391
vn -0.0000 -0.0000 -1.0000
vn -0.0000 -0.1951 -0.9808
vn -0.0000 -0.3827 -0.9239
vn -0.0000 -0.5556 -0.8315
vn -0.0000 -0.7071 -0.7071
vn -0.0000 -0.8315 -0.5556
vn -0.0000 -0.9239 -0.3827
vn -0.0000 -0.9808 -0.1951
vn -0.0000 -1.0000 -0.0000
vn -0.0000 -0.9808 0.1951
vn -0.0000 -0.9239 0.3827
vn -0.0000 -0.8315 0.5556
vn -0.0000 -0.7071 0.7071
vn -0.0000 -0.5556 0.8315
vn -0.0000 -0.3827 0.9239
vn -0.0000 -0.1951 0.9808
vn -0.0000 -0.0000 1.0000
vn -0.0000 0.1951 0.9808
vn -0.0000 0.3827 0.9239
vn -0.0000 0.5556 0.8315
vn -0.0000 0.7071 0.7071
vn -0.0000 0.8315 0.5556
vn -0.0000 0.9239 0.3827
vn -0.0000 0.9808 0.1951
vn -0.0000 1.0000 -0.0000
vn -0.0000 0.9808 -0.1951
vn -0.0000 0.9239 -0.3827
vn -0.0000 0.8315 -0.5556
vn -0.0000 0.7071 -0.7071
vn -0.0000 0.5556 -0.8315
vn -0.0000 0.3827 -0.9239
vn -0.0000 0.1951 -0.9808
vn -1.0000 -0.0000 -0.0000
vt 0.509344 0.347410
vt 0.100736 0.967250
vt 0.097832 0.806710
vt 0.490944 0.391831
vt 0.075865 0.967250
vt 0.072190 0.806710
vt 0.464231 0.431810
vt 0.051471 0.967250
vt 0.048037 0.806710
vt 0.430232 0.465809
vt 0.028492 0.967250
vt 0.026299 0.806710
vt 0.390253 0.492521
vt 0.007812 0.967250
vt 0.869061 0.007813
vt 0.007813 0.806710
vt 0.301586 0.405389
vt 0.345832 0.510921
vt 0.869061 0.028493
vt 0.283100 0.405389
vt 0.298674 0.520302
vt 0.869061 0.051471
vt 0.261362 0.405389
vt 0.250592 0.520302
vt 0.869061 0.075865
vt 0.237208 0.405389
vt 0.203435 0.510921
vt 0.869061 0.100736
vt 0.211567 0.405389
vt 0.159013 0.492521
vt 0.869061 0.125130
vt 0.185423 0.405389
vt 0.119034 0.465808
vt 0.869061 0.148108
vt 0.159781 0.405389
vt 0.085036 0.431809
vt 0.869061 0.168788
vt 0.135628 0.405389
vt 0.058323 0.391831
vt 0.869061 0.186375
vt 0.869061 0.202000
vt 0.113890 0.405389
vt 0.039923 0.347409
vt 0.869061 0.222680
vt 0.095404 0.405389
vt 0.394437 0.805033
vt 0.030542 0.300252
vt 0.869061 0.245659
vt 0.373275 0.805033
vt 0.030543 0.252170
vt 0.869061 0.270052
vt 0.349762 0.805033
vt 0.039923 0.205012
vt 0.869061 0.294924
vt 0.324799 0.805033
vt 0.058323 0.160590
vt 0.869061 0.319318
vt 0.299348 0.805033
vt 0.085036 0.120612
vt 0.869061 0.342296
vt 0.274386 0.805033
vt 0.119035 0.086613
vt 0.869061 0.362976
vt 0.250872 0.805033
vt 0.159013 0.059900
vt 0.462126 0.151164
vt 0.869061 0.380563
vt 0.229710 0.805033
vt 0.708521 0.267474
vt 0.203435 0.041500
vt 0.462126 0.168751
vt 0.687359 0.267474
vt 0.250592 0.032120
vt 0.462126 0.189431
vt 0.663845 0.267474
vt 0.298674 0.032120
vt 0.462126 0.212409
vt 0.638883 0.267474
vt 0.345832 0.041500
vt 0.462126 0.236803
vt 0.613431 0.267474
vt 0.390254 0.059901
vt 0.462126 0.261674
vt 0.588469 0.267474
vt 0.430232 0.086613
vt 0.462126 0.286068
vt 0.564955 0.267474
vt 0.464231 0.120612
vt 0.462126 0.309046
vt 0.543793 0.267474
vt 0.213995 0.806710
vt 0.490944 0.160591
vt 0.462126 0.329726
vt 0.186375 0.967250
vt 0.195509 0.806710
vt 0.509344 0.205012
vt 0.168788 0.967250
vt 0.173771 0.806710
vt 0.518724 0.252170
vt 0.148108 0.967250
vt 0.149617 0.806710
vt 0.518724 0.300252
vt 0.125130 0.967250
vt 0.123976 0.806710
vt 0.097832 0.539983
vt 0.518425 0.350164
vt 0.072190 0.539983
vt 0.499313 0.396305
vt 0.048037 0.539983
vt 0.471567 0.437830
vt 0.026299 0.539983
vt 0.436252 0.473144
vt 0.007813 0.539983
vt 0.301586 0.138662
vt 0.394727 0.500891
vt 0.283100 0.138662
vt 0.348587 0.520003
vt 0.261362 0.138662
vt 0.299604 0.529746
vt 0.237208 0.138662
vt 0.249662 0.529746
vt 0.211567 0.138662
vt 0.200680 0.520003
vt 0.185423 0.138662
vt 0.154539 0.500891
vt 0.159781 0.138662
vt 0.113014 0.473144
vt 0.135628 0.138662
vt 0.077700 0.437830
vt 0.113890 0.138662
vt 0.049953 0.396305
vt 0.095404 0.138662
vt 0.394437 0.545371
vt 0.030841 0.350164
vt 0.373275 0.545371
vt 0.021098 0.301182
vt 0.349762 0.545371
vt 0.021098 0.251240
vt 0.324799 0.545371
vt 0.030841 0.202257
vt 0.299348 0.545371
vt 0.049953 0.156117
vt 0.274386 0.545371
vt 0.077700 0.114592
vt 0.250872 0.545371
vt 0.113014 0.079277
vt 0.229710 0.545371
vt 0.708521 0.007813
vt 0.154539 0.051531
vt 0.687359 0.007813
vt 0.200680 0.032419
vt 0.663845 0.007813
vt 0.249662 0.022676
vt 0.638883 0.007813
vt 0.299604 0.022676
vt 0.613431 0.007813
vt 0.348587 0.032419
vt 0.588469 0.007813
vt 0.394727 0.051531
vt 0.564955 0.007813
vt 0.436252 0.079277
vt 0.543793 0.007813
vt 0.213995 0.539983
vt 0.471567 0.114592
vt 0.195509 0.539983
vt 0.499313 0.156117
vt 0.173771 0.539983
vt 0.518425 0.202257
vt 0.149617 0.539983
vt 0.528168 0.251240
vt 0.123976 0.539983
vt 0.528168 0.301182
vt 0.967527 0.765864
vt 0.100736 0.822335
vt 0.946107 0.817577
vt 0.075865 0.822335
vt 0.915009 0.864118
vt 0.051471 0.822335
vt 0.875430 0.903698
vt 0.028492 0.822335
vt 0.828889 0.934796
vt 0.007812 0.822335
vt 0.724146 0.007813
vt 0.777175 0.956216
vt 0.724146 0.028493
vt 0.722277 0.967136
vt 0.724146 0.051471
vt 0.666303 0.967136
vt 0.724146 0.075865
vt 0.611404 0.956216
vt 0.724146 0.100736
vt 0.559690 0.934795
vt 0.724146 0.125130
vt 0.513150 0.903698
vt 0.724146 0.148108
vt 0.473570 0.864118
vt 0.724146 0.168788
vt 0.442472 0.817577
vt 0.724146 0.186375
vt 0.724146 0.202000
vt 0.421052 0.765864
vt 0.724146 0.222680
vt 0.410132 0.710965
vt 0.724146 0.245659
vt 0.410132 0.654991
vt 0.724146 0.270052
vt 0.421052 0.600092
vt 0.724146 0.294924
vt 0.442473 0.548379
vt 0.724146 0.319318
vt 0.473570 0.501838
vt 0.724146 0.342296
vt 0.513150 0.462258
vt 0.724146 0.362976
vt 0.559691 0.431161
vt 0.317211 0.151164
vt 0.724146 0.380563
vt 0.611404 0.409740
vt 0.317211 0.168751
vt 0.666303 0.398820
vt 0.317211 0.189431
vt 0.722277 0.398820
vt 0.317211 0.212409
vt 0.777176 0.409740
vt 0.317211 0.236803
vt 0.828889 0.431161
vt 0.317211 0.261674
vt 0.875430 0.462259
vt 0.317211 0.286068
vt 0.915010 0.501838
vt 0.317211 0.309046
vt 0.946107 0.548379
vt 0.317211 0.329726
vt 0.186375 0.822335
vt 0.967528 0.600093
vt 0.168788 0.822335
vt 0.978447 0.654991
vt 0.148108 0.822335
vt 0.978447 0.710965
vt 0.125130 0.822335
s 1
usemtl R1_Mirror
f 65/105/1 2/3/1 4/6/2 66/107/2
f 66/107/2 4/6/2 6/9/3 67/109/3
f 67/109/3 6/9/3 8/12/4 68/111/4
f 68/111/4 8/12/4 10/16/5 69/113/5
f 69/114/5 10/17/5 12/20/6 70/116/6
f 70/116/6 12/20/6 14/23/7 71/118/7
f 71/118/7 14/23/7 16/26/8 72/120/8
f 72/120/8 16/26/8 18/29/9 73/122/9
f 73/122/9 18/29/9 20/32/10 74/124/10
f 74/124/10 20/32/10 22/35/11 75/126/11
f 75/126/11 22/35/11 24/38/12 76/128/12
f 76/128/12 24/38/12 26/42/13 77/130/13
f 77/130/13 26/42/13 28/45/14 78/132/14
f 78/133/14 28/46/14 30/49/15 79/135/15
f 79/135/15 30/49/15 32/52/16 80/137/16
f 80/137/16 32/52/16 34/55/17 81/139/17
f 81/139/17 34/55/17 36/58/18 82/141/18
f 82/141/18 36/58/18 38/61/19 83/143/19
f 83/143/19 38/61/19 40/64/20 84/145/20
f 84/145/20 40/64/20 42/68/21 85/147/21
f 85/148/21 42/69/21 44/72/22 86/150/22
f 86/150/22 44/72/22 46/75/23 87/152/23
f 87/152/23 46/75/23 48/78/24 88/154/24
f 88/154/24 48/78/24 50/81/25 89/156/25
f 89/156/25 50/81/25 52/84/26 90/158/26
f 90/158/26 52/84/26 54/87/27 91/160/27
f 91/160/27 54/87/27 56/90/28 92/162/28
f 92/163/28 56/91/28 58/95/29 93/165/29
f 93/165/29 58/95/29 60/98/30 94/167/30
f 94/167/30 60/98/30 62/101/31 95/169/31
f 95/169/31 62/101/31 64/104/32 96/171/32
f 96/171/32 64/104/32 2/3/1 65/105/1
f 13/22/23 15/25/24 104/189/24 103/187/23
f 3/4/33 1/1/33 65/106/33 66/108/33
f 5/7/33 3/4/33 66/108/33 67/110/33
f 7/10/33 5/7/33 67/110/33 68/112/33
f 9/13/33 7/10/33 68/112/33 69/115/33
f 11/18/33 9/13/33 69/115/33 70/117/33
f 13/21/33 11/18/33 70/117/33 71/119/33
f 15/24/33 13/21/33 71/119/33 72/121/33
f 17/27/33 15/24/33 72/121/33 73/123/33
f 19/30/33 17/27/33 73/123/33 74/125/33
f 21/33/33 19/30/33 74/125/33 75/127/33
f 23/36/33 21/33/33 75/127/33 76/129/33
f 25/39/33 23/36/33 76/129/33 77/131/33
f 27/43/33 25/39/33 77/131/33 78/134/33
f 29/47/33 27/43/33 78/134/33 79/136/33
f 31/50/33 29/47/33 79/136/33 80/138/33
f 33/53/33 31/50/33 80/138/33 81/140/33
f 35/56/33 33/53/33 81/140/33 82/142/33
f 37/59/33 35/56/33 82/142/33 83/144/33
f 39/62/33 37/59/33 83/144/33 84/146/33
f 41/65/33 39/62/33 84/146/33 85/149/33
f 43/70/33 41/65/33 85/149/33 86/151/33
f 45/73/33 43/70/33 86/151/33 87/153/33
f 47/76/33 45/73/33 87/153/33 88/155/33
f 49/79/33 47/76/33 88/155/33 89/157/33
f 51/82/33 49/79/33 89/157/33 90/159/33
f 53/85/33 51/82/33 90/159/33 91/161/33
f 55/88/33 53/85/33 91/161/33 92/164/33
f 57/92/33 55/88/33 92/164/33 93/166/33
f 59/96/33 57/92/33 93/166/33 94/168/33
f 61/99/33 59/96/33 94/168/33 95/170/33
f 63/102/33 61/99/33 95/170/33 96/172/33
f 1/1/33 63/102/33 96/172/33 65/106/33
f 97/173/33 98/175/33 99/177/33 100/179/33 101/181/33 102/184/33 103/186/33 104/188/33 105/190/33 106/192/33 107/194/33 108/196/33 109/198/33 110/201/33 111/203/33 112/205/33 113/207/33 114/209/33 115/211/33 116/213/33 117/215/33 118/218/33 119/220/33 120/222/33 121/224/33 122/226/33 123/228/33 124/230/33 125/232/33 126/235/33 127/237/33 128/239/33
f 41/66/5 43/71/6 118/219/6 117/216/5
f 15/25/24 17/28/25 105/191/25 104/189/24
f 43/71/6 45/74/7 119/221/7 118/219/6
f 17/28/25 19/31/26 106/193/26 105/191/25
f 45/74/7 47/77/8 120/223/8 119/221/7
f 19/31/26 21/34/27 107/195/27 106/193/26
f 47/77/8 49/80/9 121/225/9 120/223/8
f 21/34/27 23/37/28 108/197/28 107/195/27
f 49/80/9 51/83/10 122/227/10 121/225/9
f 23/37/28 25/40/29 109/199/29 108/197/28
f 51/83/10 53/86/11 123/229/11 122/227/10
f 25/41/29 27/44/30 110/202/30 109/200/29
f 53/86/11 55/89/12 124/231/12 123/229/11
f 27/44/30 29/48/31 111/204/31 110/202/30
f 1/2/17 3/5/18 98/176/18 97/174/17
f 55/89/12 57/93/13 125/233/13 124/231/12
f 29/48/31 31/51/32 112/206/32 111/204/31
f 3/5/18 5/8/19 99/178/19 98/176/18
f 57/94/13 59/97/14 126/236/14 125/234/13
f 31/51/32 33/54/1 113/208/1 112/206/32
f 5/8/19 7/11/20 100/180/20 99/178/19
f 59/97/14 61/100/15 127/238/15 126/236/14
f 33/54/1 35/57/2 114/210/2 113/208/1
f 7/11/20 9/14/21 101/182/21 100/180/20
f 61/100/15 63/103/16 128/240/16 127/238/15
f 35/57/2 37/60/3 115/212/3 114/210/2
f 9/15/21 11/19/22 102/185/22 101/183/21
f 63/103/16 1/2/17 97/174/17 128/240/16
f 37/60/3 39/63/4 116/214/4 115/212/3
f 11/19/22 13/22/23 103/187/23 102/185/22
f 39/63/4 41/67/5 117/217/5 116/214/4
