# Blender 3.5.1
# www.blender.org
mtllib R1_Skybox.mtl
o R1_Skybox
v 49.999996 -50.000000 -50.000004
v 49.999996 50.000000 -50.000004
v 50.000004 -50.000000 49.999996
v 50.000004 50.000000 49.999996
v -50.000004 -50.000000 -49.999996
v -50.000004 50.000000 -49.999996
v -49.999996 -50.000000 50.000004
v -49.999996 50.000000 50.000004
vn -1.0000 -0.0000 -0.0000
vn -0.0000 -0.0000 -1.0000
vn 1.0000 -0.0000 -0.0000
vn -0.0000 -0.0000 1.0000
vn -0.0000 1.0000 -0.0000
vn -0.0000 -1.0000 -0.0000
vt 1.000000 0.333013
vt 0.000000 0.333013
vt 0.250000 -0.000961
vt 1.000000 0.666987
vt 0.000000 0.666987
vt 0.250000 1.000961
vt 0.750000 0.333013
vt 0.500000 -0.000961
vt 0.750000 0.666987
vt 0.500000 1.000961
vt 0.250000 0.333013
vt 0.250000 0.666987
vt 0.500000 0.333013
vt 0.500000 0.666987
s 0
usemtl R1_Skybox
f 1/1/1 3/7/1 4/9/1 2/4/1
f 3/7/2 7/13/2 8/14/2 4/9/2
f 7/13/3 5/11/3 6/12/3 8/14/3
f 5/11/4 1/2/4 2/5/4 6/12/4
f 3/8/5 1/3/5 5/11/5 7/13/5
f 8/14/6 6/12/6 2/6/6 4/10/6
