# Blender 3.5.1
# www.blender.org
mtllib R1_Wall.mtl
o R1_Wall
v 4.200000 0.000000 -0.000000
v 4.200000 2.700000 -0.000000
v 4.200000 0.000000 -4.100000
v 4.200000 2.700000 -4.100000
v 0.000000 0.000000 -4.100000
v 0.000000 2.700000 -4.100000
v 0.000000 0.000000 0.000000
v 0.000000 2.700000 0.000000
v 4.100000 0.000000 -0.200000
v 4.100000 2.700000 -0.200000
v 4.099999 0.000000 -4.000000
v 4.099999 2.700000 -4.000000
v 0.100000 0.000000 -4.000000
v 0.100000 2.700000 -4.000000
v 0.100000 0.000000 -0.200000
v 0.100000 2.700000 -0.200000
v 4.200000 0.152808 -0.000000
v 4.200000 0.152808 -4.100000
v 0.000000 0.152808 -4.100000
v 0.000000 0.152808 0.000000
v 4.100000 0.152808 -0.200000
v 4.099999 0.152808 -4.000000
v 0.100000 0.152808 -4.000000
v 0.100000 0.152808 -0.200000
v 1.300544 0.856357 -0.000000
v 2.963483 0.856357 -0.000000
v 3.132014 1.411927 -0.000000
v 3.112799 1.216837 -0.000000
v 3.112799 1.607017 -0.000000
v 3.055893 1.794611 -0.000000
v 3.055893 1.029244 -0.000000
v 1.132014 1.411927 -0.000000
v 1.151228 1.216837 -0.000000
v 1.151228 1.607017 -0.000000
v 1.424907 2.119034 -0.000000
v 1.300544 1.967497 -0.000000
v 1.208134 1.029244 -0.000000
v 1.208134 1.794611 -0.000000
v 1.749330 2.335807 -0.000000
v 2.132014 2.411927 -0.000000
v 1.936923 2.392712 -0.000000
v 2.687584 2.243397 -0.000000
v 2.514697 2.335807 -0.000000
v 2.963483 1.967497 -0.000000
v 2.839120 2.119034 -0.000000
v 2.327104 2.392712 -0.000000
v 1.576443 2.243397 -0.000000
v 1.100473 1.411927 -0.200000
v 1.132014 1.411927 -0.168611
v 1.122775 1.411927 -0.190807
v 1.120294 1.210684 -0.200000
v 1.151228 1.216837 -0.168611
v 1.142168 1.215035 -0.190807
v 1.120294 1.613171 -0.200000
v 1.151228 1.607017 -0.168611
v 1.142168 1.608820 -0.190807
v 1.402604 2.141336 -0.200000
v 1.424907 2.119034 -0.168611
v 1.418374 2.125566 -0.190807
v 1.274319 1.985020 -0.200000
v 1.300544 1.967497 -0.168611
v 1.292863 1.972630 -0.190807
v 1.208134 1.029244 -0.168611
v 1.178994 1.017174 -0.200000
v 1.199599 1.025709 -0.190807
v 1.178994 1.806680 -0.200000
v 1.208134 1.794611 -0.168611
v 1.199599 1.798146 -0.190807
v 1.737259 2.364946 -0.200000
v 1.749330 2.335807 -0.168611
v 1.745795 2.344341 -0.190807
v 2.132014 2.443468 -0.200000
v 2.132014 2.411927 -0.168611
v 2.132014 2.421165 -0.190807
v 1.930770 2.423647 -0.200000
v 1.936923 2.392712 -0.168611
v 1.935121 2.401773 -0.190807
v 2.526768 2.364946 -0.200000
v 2.514697 2.335807 -0.168611
v 2.518233 2.344341 -0.190807
v 2.861228 2.141496 -0.200000
v 2.839120 2.119034 -0.168611
v 2.845596 2.125613 -0.190807
v 2.687584 2.243397 -0.168611
v 2.705107 2.269622 -0.200000
v 2.692716 2.251078 -0.190807
v 2.333257 2.423647 -0.200000
v 2.327104 2.392712 -0.168611
v 2.328906 2.401773 -0.190807
v 1.558921 2.269622 -0.200000
v 1.576443 2.243397 -0.168611
v 1.571311 2.251078 -0.190807
v 1.300544 0.856357 -0.168611
v 1.275766 0.836127 -0.200000
v 1.293287 0.850432 -0.190807
v 2.963483 0.856357 -0.168611
v 2.995441 0.836574 -0.200000
v 2.972843 0.850563 -0.190807
v 2.989998 1.984587 -0.200000
v 2.963483 1.967497 -0.168611
v 2.971249 1.972503 -0.190807
v 3.163554 1.411927 -0.200000
v 3.132014 1.411927 -0.168612
v 3.141251 1.411927 -0.190807
v 3.143733 1.210684 -0.200000
v 3.112799 1.216837 -0.168612
v 3.121859 1.215035 -0.190807
v 3.143733 1.613171 -0.200000
v 3.112799 1.607017 -0.168612
v 3.121859 1.608820 -0.190807
v 3.084960 1.806921 -0.200000
v 3.055893 1.794611 -0.168611
v 3.064406 1.798216 -0.190807
v 3.076275 0.988304 -0.200000
v 3.055893 1.029244 -0.168611
v 3.061862 1.017253 -0.190807
v 4.090070 0.000000 -0.209930
v 0.109930 0.000000 -0.209930
v 0.109930 0.000000 -3.990070
v 4.090070 0.000000 -3.990071
v 4.090070 0.148385 -0.209930
v 4.094501 0.152808 -0.205500
v 4.091368 0.151512 -0.208632
v 4.094500 0.152808 -3.994501
v 4.090070 0.148385 -3.990071
v 4.091367 0.151512 -3.991368
v 0.109930 0.148385 -3.990070
v 0.105497 0.152808 -3.994503
v 0.108631 0.151512 -3.991369
v 0.109930 0.148385 -0.209930
v 0.105499 0.152808 -0.205498
v 0.108632 0.151512 -0.208632
vn 1.0000 -0.0000 -0.0000
vn -0.0000 1.0000 -0.0000
vn 0.0504 0.9975 -0.0504
vn 0.0504 0.9975 0.0504
vn -1.0000 -0.0000 -0.0000
vn -0.0000 -0.0000 1.0000
vn 0.9239 0.3827 -0.0000
vn 0.9613 0.1912 -0.1983
vn 0.9808 0.1951 -0.0000
vn -0.9239 0.3827 -0.0000
vn -0.8584 0.4587 -0.2297
vn -0.8819 0.4714 -0.0000
vn -0.0504 0.9975 0.0504
vn -0.0000 -0.0000 -1.0000
vn -0.0000 -1.0000 -0.0000
vn 0.1951 -0.9808 -0.0000
vn -0.0000 -0.9801 -0.1983
vn -0.8315 -0.5556 -0.0000
vn -0.6931 -0.6930 -0.1982
vn -0.8148 -0.5447 -0.1983
vn -0.1951 -0.9808 -0.0000
vn -0.3751 -0.9055 -0.1983
vn -0.3827 -0.9239 -0.0000
vn -0.0000 0.9900 -0.1413
vn -0.0000 0.9899 -0.1416
vn -0.5556 -0.8315 -0.0000
vn -0.7071 -0.7071 -0.0000
vn -0.9801 -0.0000 -0.1983
vn -0.9808 0.1951 -0.0000
vn -0.9613 0.1912 -0.1983
vn -0.9613 -0.1912 -0.1983
vn -0.9808 -0.1951 -0.0000
vn -0.9055 -0.3750 -0.1985
vn -0.9239 -0.3827 -0.0000
vn -0.1790 0.0356 -0.9832
vn -0.1825 -0.0000 -0.9832
vn 0.3827 -0.9239 -0.0000
vn 0.1912 -0.9613 -0.1983
vn 0.9808 -0.1951 -0.0000
vn 0.9055 -0.3751 -0.1983
vn 0.9239 -0.3827 -0.0000
vn 0.1014 -0.1518 -0.9832
vn 0.1291 -0.1291 -0.9832
vn 0.9801 -0.0000 -0.1983
vn 0.7071 -0.7071 -0.0000
vn 0.5445 -0.8150 -0.1983
vn 0.5556 -0.8315 -0.0000
vn 0.8819 0.4714 -0.0000
vn 0.9055 0.3751 -0.1983
vn 0.8150 -0.5445 -0.1983
vn 0.8315 -0.5556 -0.0000
vn 0.6931 -0.6931 -0.1983
vn -0.1912 -0.9613 -0.1983
vn 0.3751 -0.9055 -0.1983
vn -0.5445 -0.8150 -0.1983
vn 0.6528 -0.6528 -0.3843
vn 0.3169 -0.2117 -0.9245
vn 0.2695 -0.2695 -0.9245
vn 0.8529 0.3533 -0.3843
vn 0.9055 0.1801 -0.3843
vn 0.3738 0.0744 -0.9245
vn 0.1686 0.0698 -0.9832
vn 0.1790 0.0356 -0.9832
vn 0.0356 -0.1790 -0.9832
vn 0.1458 -0.3521 -0.9245
vn 0.0698 -0.1686 -0.9832
vn 0.1801 -0.9055 -0.3843
vn 0.3533 -0.8529 -0.3843
vn -0.6528 -0.6530 -0.3840
vn -0.2117 -0.3169 -0.9245
vn -0.1291 -0.1292 -0.9832
vn -0.2698 -0.2695 -0.9244
vn 0.2117 -0.3169 -0.9245
vn 0.8642 0.4619 -0.1996
vn 0.1479 0.4001 -0.9044
vn 0.3521 0.1458 -0.9245
vn -0.0000 0.9662 -0.2579
vn -0.1178 0.4056 -0.9064
vn 0.0756 0.1075 -0.9913
vn -0.3167 -0.2121 -0.9245
vn -0.1518 -0.1013 -0.9832
vn -0.3519 -0.1456 -0.9246
vn -0.7678 -0.5126 -0.3843
vn -0.3442 0.1242 -0.9306
vn -0.3738 0.0744 -0.9245
vn -0.9055 0.1801 -0.3843
vn -0.9071 0.3642 -0.2110
vn -0.0356 -0.1790 -0.9832
vn -0.0000 -0.3811 -0.9245
vn -0.0000 -0.1825 -0.9832
vn -0.1801 -0.9055 -0.3843
vn -0.0000 -0.9232 -0.3843
vn -0.0698 -0.1686 -0.9832
vn -0.1458 -0.3521 -0.9245
vn -0.3533 -0.8529 -0.3843
vn 0.9232 -0.0000 -0.3843
vn 0.3811 -0.0000 -0.9245
vn 0.1825 -0.0000 -0.9832
vn 0.1790 -0.0356 -0.9832
vn 0.9055 -0.1801 -0.3843
vn 0.1686 -0.0698 -0.9832
vn 0.3738 -0.0744 -0.9245
vn 0.9613 -0.1912 -0.1983
vn -0.9055 -0.1801 -0.3842
vn -0.1790 -0.0356 -0.9832
vn -0.3738 -0.0744 -0.9245
vn -0.3811 -0.0000 -0.9245
vn -0.9232 -0.0000 -0.3842
vn 0.7676 -0.5129 -0.3843
vn 0.3521 -0.1458 -0.9245
vn 0.1518 -0.1014 -0.9832
vn -0.8308 0.3646 -0.4205
vn -0.7906 0.4222 -0.4436
vn -0.1484 0.0684 -0.9866
vn -0.0701 0.0936 -0.9931
vn 0.5129 -0.7676 -0.3843
vn -0.0000 0.9242 0.3820
vn 0.9764 0.2158 -0.0000
vn -0.0504 0.9975 -0.0504
vn -0.0000 0.2158 0.9764
vn -0.0000 0.3832 0.9237
vn -0.0000 0.3833 0.9236
vn -0.0000 0.2158 -0.9764
vn -0.3822 0.9241 -0.0000
vn -0.9237 0.3832 -0.0000
vn -0.9764 0.2158 -0.0000
vn -0.9236 0.3833 -0.0000
vn -0.0000 0.2157 0.9765
vn -0.0000 0.3833 -0.9236
vn -0.0000 0.9241 -0.3820
vn -0.0000 0.9241 -0.3821
vn 0.3820 0.9241 -0.0000
vn 0.3819 0.9242 -0.0000
vn 0.9236 0.3833 -0.0000
vn 0.9236 0.3834 -0.0000
vn -0.1685 -0.0699 -0.9832
vn -0.1014 -0.1518 -0.9832
vn 0.0744 -0.3738 -0.9245
vn -0.5129 -0.7676 -0.3843
vn 0.8148 0.4355 -0.3827
vn -0.0001 0.9676 -0.2526
vn -0.8528 -0.3534 -0.3845
vn -0.0744 -0.3738 -0.9245
vn 0.8529 -0.3533 -0.3843
vn -0.0000 0.9241 0.3821
vn -0.3821 0.9241 -0.0000
vn -0.9765 0.2157 -0.0000
vt 0.310128 0.598358
vt 0.394437 0.299977
vt 0.500951 0.598910
vt 0.204152 0.299977
vt 0.003906 0.599427
vt 0.193991 0.003923
vt 0.310128 0.310152
vt 0.500951 0.310704
vt 0.003906 0.310466
vt 0.003906 0.003907
vt 0.193991 0.300305
vt 0.404598 0.292679
vt 0.595422 0.292127
vt 0.299967 0.310466
vt 0.003906 0.300289
vt 0.394437 0.003906
vt 0.404598 0.004473
vt 0.595422 0.003921
vt 0.204152 0.003906
vt 0.299967 0.599427
vt 0.545565 0.598741
vt 0.996094 0.003921
vt 0.010955 0.585332
vt 0.805909 0.286427
vt 0.545565 0.865701
vt 0.996094 0.271038
vt 0.003906 0.609588
vt 0.010955 0.317514
vt 0.828437 0.865701
vt 0.490151 0.609041
vt 0.285878 0.609588
vt 0.292918 0.317514
vt 0.828437 0.598741
vt 0.490151 0.876158
vt 0.292918 0.585332
vt 0.805909 0.003922
vt 0.383668 0.299977
vt 0.320928 0.598389
vt 0.183233 0.003922
vt 0.320927 0.310184
vt 0.415398 0.292647
vt 0.183233 0.300304
vt 0.383668 0.003906
vt 0.415398 0.004442
vt 0.816070 0.004442
vt 0.626432 0.286412
vt 0.543447 0.302453
vt 0.003906 0.789104
vt 0.816070 0.271559
vt 0.815221 0.302453
vt 0.310128 0.608520
vt 0.285878 0.789104
vt 0.815221 0.588580
vt 0.310128 0.875638
vt 0.626432 0.003907
vt 0.543447 0.588580
vt 0.334085 0.095585
vt 0.021116 0.448320
vt 0.060630 0.422557
vt 0.062702 0.455057
vt 0.334085 0.212811
vt 0.021116 0.330898
vt 0.294930 0.224691
vt 0.060928 0.496449
vt 0.308680 0.223337
vt 0.061233 0.481989
vt 0.281181 0.223337
vt 0.060928 0.510835
vt 0.267960 0.219325
vt 0.061233 0.524596
vt 0.321900 0.219325
vt 0.061832 0.468013
vt 0.294930 0.083705
vt 0.058856 0.381173
vt 0.308680 0.085060
vt 0.059162 0.395629
vt 0.281181 0.085060
vt 0.058856 0.366789
vt 0.060630 0.329459
vt 0.245096 0.104352
vt 0.037838 0.566405
vt 0.255776 0.095585
vt 0.059761 0.340425
vt 0.321900 0.089071
vt 0.059761 0.409603
vt 0.267960 0.089071
vt 0.059162 0.353030
vt 0.229819 0.127222
vt 0.035986 0.542204
vt 0.224454 0.154198
vt 0.035335 0.513657
vt 0.225809 0.140446
vt 0.035500 0.528210
vt 0.236332 0.193362
vt 0.036776 0.472213
vt 0.229819 0.181175
vt 0.035986 0.485110
vt 0.255776 0.212811
vt 0.061832 0.537203
vt 0.037838 0.460909
vt 0.245096 0.204044
vt 0.062702 0.548171
vt 0.225809 0.167951
vt 0.035500 0.499104
vt 0.236332 0.115034
vt 0.036776 0.555101
vt 0.715150 0.074574
vt 0.046461 0.381340
vt 0.044756 0.381344
vt 0.715106 0.076150
vt 0.700971 0.075973
vt 0.046766 0.395797
vt 0.045064 0.395935
vt 0.701233 0.077518
vt 0.729330 0.075975
vt 0.046461 0.366956
vt 0.728979 0.077521
vt 0.044756 0.366827
vt 0.766545 0.095917
vt 0.048235 0.329626
vt 0.025343 0.566405
vt 0.765390 0.097031
vt 0.023643 0.566892
vt 0.046546 0.329153
vt 0.755531 0.086855
vt 0.047365 0.340592
vt 0.754614 0.088166
vt 0.045669 0.340220
vt 0.047365 0.409770
vt 0.687336 0.080117
vt 0.687893 0.081573
vt 0.045669 0.410037
vt 0.742965 0.080122
vt 0.046766 0.353197
vt 0.045064 0.352942
vt 0.742319 0.081578
vt 0.782301 0.119554
vt 0.023491 0.542204
vt 0.780805 0.120157
vt 0.021773 0.542468
vt 0.787834 0.147434
vt 0.022840 0.513657
vt 0.021117 0.513657
vt 0.786218 0.147435
vt 0.786437 0.133221
vt 0.023005 0.528210
vt 0.021282 0.528344
vt 0.784851 0.133529
vt 0.782301 0.175314
vt 0.023491 0.485110
vt 0.021773 0.484846
vt 0.780805 0.174711
vt 0.766556 0.198934
vt 0.050304 0.548004
vt 0.025343 0.460909
vt 0.765393 0.197831
vt 0.023642 0.460426
vt 0.048616 0.548481
vt 0.024280 0.472213
vt 0.775584 0.187908
vt 0.774233 0.187034
vt 0.022570 0.471830
vt 0.786437 0.161647
vt 0.023005 0.499104
vt 0.021282 0.498969
vt 0.784851 0.161340
vt 0.775584 0.106958
vt 0.024280 0.555101
vt 0.774233 0.107833
vt 0.022570 0.555484
vt 0.033020 0.448320
vt 0.048235 0.422724
vt 0.674579 0.086951
vt 0.046550 0.423170
vt 0.675542 0.088189
vt 0.034595 0.448832
vt 0.033020 0.330898
vt 0.050304 0.454890
vt 0.674610 0.208405
vt 0.048603 0.454458
vt 0.034595 0.330237
vt 0.675552 0.206810
vt 0.755500 0.208028
vt 0.049435 0.537036
vt 0.754605 0.206704
vt 0.047737 0.537399
vt 0.715150 0.220282
vt 0.048530 0.496282
vt 0.715106 0.218707
vt 0.046825 0.496277
vt 0.700971 0.218881
vt 0.048835 0.481822
vt 0.701233 0.217337
vt 0.047133 0.481684
vt 0.729330 0.218883
vt 0.048530 0.510668
vt 0.046825 0.510796
vt 0.728979 0.217339
vt 0.742982 0.214733
vt 0.048835 0.524429
vt 0.047133 0.524690
vt 0.742324 0.213282
vt 0.685301 0.214115
vt 0.049435 0.467846
vt 0.047765 0.466949
vt 0.687297 0.213098
vt 0.272667 0.799265
vt 0.546268 0.599439
vt 0.521988 0.586351
vt 0.521988 0.305162
vt 0.006214 0.820144
vt 0.827735 0.599439
vt 0.272132 0.820144
vt 0.827735 0.865003
vt 0.605583 0.287285
vt 0.546268 0.865003
vt 0.605583 0.006500
vt 0.006750 0.799265
vt 0.532447 0.586352
vt 0.272698 0.809760
vt 0.543841 0.302846
vt 0.272780 0.809983
vt 0.544066 0.303070
vt 0.532661 0.586444
vt 0.814828 0.302846
vt 0.616048 0.006500
vt 0.006780 0.809760
vt 0.616271 0.006408
vt 0.814606 0.303070
vt 0.006680 0.809983
vt 0.616048 0.287285
vt 0.272102 0.830639
vt 0.814828 0.588187
vt 0.616271 0.287376
vt 0.272202 0.830863
vt 0.814606 0.587963
vt 0.532447 0.305163
vt 0.006184 0.830639
vt 0.543841 0.588187
vt 0.532661 0.305071
vt 0.544066 0.587963
vt 0.006102 0.830863
s 1
usemtl R1_Wall
f 18/40/1 2/3/1 17/38/1
f 23/53/2 131/239/3 128/233/4
f 20/44/5 6/13/5 19/41/5
f 2/4/6 29/67/6 27/63/6
f 8/19/6 36/82/6 35/80/6
f 10/22/5 22/49/5 21/45/5
f 14/30/1 24/54/1 23/51/1
f 12/27/6 23/52/6 22/48/6
f 4/9/2 10/23/2 2/5/2
f 6/14/2 12/28/2 4/9/2
f 6/14/2 16/35/2 14/32/2
f 2/5/2 16/35/2 8/20/2
f 22/50/2 128/233/4 124/225/13
f 19/42/14 3/6/14 5/11/14
f 1/2/6 20/43/6 7/16/6
f 7/17/5 19/41/5 5/12/5
f 9/21/15 120/216/15 11/25/15
f 3/7/1 17/38/1 1/1/1
f 13/29/15 118/212/15 15/33/15
f 21/46/14 105/191/35 102/187/36
f 16/36/14 90/167/42 57/119/43
f 62/127/57 57/119/43 59/122/58
f 53/114/61 64/130/62 51/111/63
f 75/145/64 71/139/65 69/137/66
f 86/161/70 81/153/71 83/156/72
f 92/169/73 69/137/66 71/139/65
f 95/175/75 64/130/62 65/131/76
f 98/182/78 94/173/79 95/175/75
f 81/153/71 101/185/80 83/156/72
f 99/183/81 113/202/82 101/185/80
f 105/191/35 116/206/84 107/193/85
f 87/163/88 74/144/89 72/141/90
f 78/149/93 86/161/70 80/152/94
f 80/152/94 87/163/88 78/149/93
f 50/110/97 51/111/63 48/107/98
f 54/115/99 50/110/97 48/107/98
f 66/133/101 56/117/102 54/115/99
f 74/144/89 75/145/64 72/141/90
f 113/202/82 108/195/105 110/198/106
f 102/187/36 107/193/85 104/189/107
f 110/198/106 102/187/36 104/189/107
f 68/136/110 60/125/111 62/127/57
f 98/182/78 114/203/114 97/179/115
f 57/119/43 92/169/73 59/122/58
f 129/236/117 124/225/13 128/233/4
f 127/232/118 118/211/1 119/213/1
f 24/56/2 122/221/119 131/239/3
f 127/231/120 126/228/121 129/234/122
f 15/33/15 117/208/15 9/21/15
f 19/42/14 4/10/14 18/39/14
f 21/47/2 124/225/13 122/221/119
f 130/237/123 117/209/14 118/210/14
f 124/225/13 123/223/124 122/221/119
f 126/230/125 121/220/126 123/222/127
f 11/25/15 119/214/15 13/29/15
f 119/215/6 125/226/128 127/231/120
f 130/237/123 123/224/129 121/219/123
f 132/241/130 122/221/119 123/223/131
f 128/233/4 132/241/132 129/236/133
f 132/242/134 127/232/118 129/235/135
f 121/220/126 120/218/5 117/207/5
f 18/40/1 4/8/1 2/3/1
f 23/53/2 24/56/2 131/239/3
f 20/44/5 8/18/5 6/13/5
f 31/71/6 26/61/6 17/37/6
f 17/37/6 2/4/6 27/63/6
f 2/4/6 44/98/6 30/69/6
f 2/4/6 30/69/6 29/67/6
f 28/65/6 31/71/6 17/37/6
f 27/63/6 28/65/6 17/37/6
f 45/101/6 44/98/6 2/4/6
f 20/43/6 17/37/6 25/57/6
f 17/37/6 26/61/6 25/57/6
f 42/94/6 45/101/6 2/4/6
f 43/96/6 42/94/6 2/4/6
f 8/19/6 20/43/6 32/73/6
f 20/43/6 25/57/6 37/84/6
f 20/43/6 37/84/6 33/75/6
f 46/103/6 43/96/6 2/4/6
f 40/90/6 46/103/6 2/4/6
f 20/43/6 33/75/6 32/73/6
f 40/90/6 2/4/6 8/19/6
f 41/92/6 40/90/6 8/19/6
f 8/19/6 32/73/6 34/77/6
f 8/19/6 34/77/6 38/86/6
f 39/88/6 41/92/6 8/19/6
f 47/105/6 39/88/6 8/19/6
f 8/19/6 38/86/6 36/82/6
f 35/80/6 47/105/6 8/19/6
f 10/22/5 12/26/5 22/49/5
f 14/30/1 16/34/1 24/54/1
f 12/27/6 14/31/6 23/52/6
f 4/9/2 12/28/2 10/23/2
f 6/14/2 14/32/2 12/28/2
f 6/14/2 8/20/2 16/35/2
f 2/5/2 10/23/2 16/35/2
f 22/50/2 23/53/2 128/233/4
f 19/42/14 18/39/14 3/6/14
f 1/2/6 17/37/6 20/43/6
f 7/17/5 20/44/5 19/41/5
f 9/21/15 117/208/15 120/216/15
f 3/7/1 18/40/1 17/38/1
f 13/29/15 119/214/15 118/212/15
f 111/199/136 99/183/81 10/24/14
f 10/24/14 21/46/14 102/187/36
f 21/46/14 97/179/115 114/203/114
f 21/46/14 114/203/114 105/191/35
f 108/195/105 111/199/136 10/24/14
f 102/187/36 108/195/105 10/24/14
f 94/173/79 97/179/115 21/46/14
f 10/24/14 99/183/81 81/153/71
f 10/24/14 81/153/71 85/160/137
f 94/173/79 21/46/14 24/55/14
f 64/130/62 94/173/79 24/55/14
f 10/24/14 85/160/137 78/149/93
f 10/24/14 78/149/93 87/163/88
f 64/130/62 24/55/14 51/111/63
f 24/55/14 16/36/14 48/107/98
f 51/111/63 24/55/14 48/107/98
f 16/36/14 10/24/14 72/141/90
f 10/24/14 87/163/88 72/141/90
f 54/115/99 48/107/98 16/36/14
f 16/36/14 72/141/90 75/145/64
f 16/36/14 75/145/64 69/137/66
f 66/133/101 54/115/99 16/36/14
f 60/125/111 66/133/101 16/36/14
f 16/36/14 69/137/66 90/167/42
f 57/119/43 60/125/111 16/36/14
f 62/127/57 60/125/111 57/119/43
f 53/114/61 65/131/76 64/130/62
f 75/145/64 77/148/138 71/139/65
f 86/161/70 85/160/137 81/153/71
f 92/169/73 90/167/42 69/137/66
f 95/175/75 94/173/79 64/130/62
f 98/182/78 97/179/115 94/173/79
f 81/153/71 99/183/81 101/185/80
f 99/183/81 111/199/136 113/202/82
f 105/191/35 114/203/114 116/206/84
f 87/163/88 89/166/143 74/144/89
f 78/149/93 85/160/137 86/161/70
f 80/152/94 89/166/143 87/163/88
f 50/110/97 53/114/61 51/111/63
f 54/115/99 56/117/102 50/110/97
f 66/133/101 68/136/110 56/117/102
f 74/144/89 77/148/138 75/145/64
f 113/202/82 111/199/136 108/195/105
f 102/187/36 105/191/35 107/193/85
f 110/198/106 108/195/105 102/187/36
f 68/136/110 66/133/101 60/125/111
f 98/182/78 116/206/84 114/203/114
f 57/119/43 90/167/42 92/169/73
f 129/236/117 126/229/145 124/225/13
f 127/232/118 130/238/118 118/211/1
f 24/56/2 21/47/2 122/221/119
f 127/231/120 125/226/128 126/228/121
f 15/33/15 118/212/15 117/208/15
f 19/42/14 6/15/14 4/10/14
f 21/47/2 22/50/2 124/225/13
f 130/237/123 121/219/123 117/209/14
f 124/225/13 126/229/146 123/223/124
f 126/230/125 125/227/147 121/220/126
f 11/25/15 120/216/15 119/214/15
f 119/215/6 120/217/6 125/226/128
f 130/237/123 132/240/129 123/224/129
f 132/241/130 131/239/3 122/221/119
f 128/233/4 131/239/3 132/241/132
f 132/242/134 130/238/118 127/232/118
f 121/220/126 125/227/147 120/218/5
usemtl 
f 37/85/7 52/112/8 33/76/9
f 31/72/10 96/178/11 26/60/12
f 41/93/16 73/142/17 40/91/15
f 44/99/18 82/154/19 100/184/20
f 46/104/21 79/150/22 43/97/23
f 25/58/2 96/177/24 93/171/25
f 42/95/26 82/155/19 45/100/27
f 103/188/28 28/66/29 27/64/5
f 106/192/30 31/72/10 28/66/29
f 109/196/31 27/64/5 29/68/32
f 112/200/33 29/68/32 30/70/34
f 100/184/20 30/70/34 44/99/18
f 39/89/37 76/146/38 41/93/16
f 34/78/39 67/134/40 38/87/41
f 32/74/1 52/112/8 49/108/44
f 35/81/45 91/168/46 47/106/47
f 25/59/48 63/129/49 37/85/7
f 38/87/41 61/126/50 36/83/51
f 36/83/51 58/120/52 35/79/45
f 40/91/15 88/164/53 46/104/21
f 47/106/47 70/138/54 39/89/37
f 43/97/23 84/159/55 42/95/26
f 61/126/50 59/124/56 58/120/52
f 52/112/8 65/132/59 53/113/60
f 77/147/67 70/138/54 71/140/68
f 84/159/55 83/157/69 82/155/19
f 91/168/46 71/140/68 70/138/54
f 93/172/74 65/132/59 63/129/49
f 96/177/24 95/176/77 93/171/25
f 83/158/69 100/184/20 82/154/19
f 101/186/83 112/200/33 100/184/20
f 107/194/86 115/204/87 106/192/30
f 89/165/91 73/142/17 74/143/92
f 80/151/95 84/159/55 79/150/22
f 79/150/22 89/165/91 80/151/95
f 49/108/44 53/113/60 50/109/96
f 56/118/100 49/108/44 50/109/96
f 56/118/100 67/134/40 55/116/103
f 76/146/38 74/143/92 73/142/17
f 112/200/33 110/197/104 109/196/31
f 107/194/86 103/188/28 104/190/108
f 109/196/31 104/190/108 103/188/28
f 67/134/40 62/128/109 61/126/50
f 96/178/11 116/205/112 98/180/113
f 92/170/116 58/121/52 59/123/56
f 32/74/1 55/116/103 34/78/39
f 37/85/7 63/129/49 52/112/8
f 31/72/10 115/204/87 96/178/11
f 41/93/16 76/146/38 73/142/17
f 44/99/18 45/102/27 82/154/19
f 46/104/21 88/164/53 79/150/22
f 25/58/2 26/62/2 96/177/24
f 42/95/26 84/159/55 82/155/19
f 103/188/28 106/192/30 28/66/29
f 106/192/30 115/204/87 31/72/10
f 109/196/31 103/188/28 27/64/5
f 112/200/33 109/196/31 29/68/32
f 100/184/20 112/200/33 30/70/34
f 39/89/37 70/138/54 76/146/38
f 34/78/39 55/116/103 67/134/40
f 32/74/1 33/76/9 52/112/8
f 35/81/45 58/121/52 91/168/46
f 25/59/48 93/172/74 63/129/49
f 38/87/41 67/134/40 61/126/50
f 36/83/51 61/126/50 58/120/52
f 40/91/15 73/142/17 88/164/53
f 47/106/47 91/168/46 70/138/54
f 43/97/23 79/150/22 84/159/55
f 61/126/50 62/128/109 59/124/56
f 52/112/8 63/129/49 65/132/59
f 77/147/67 76/146/38 70/138/54
f 84/159/55 86/162/139 83/157/69
f 91/168/46 92/170/116 71/140/68
f 93/172/74 95/174/140 65/132/59
f 96/177/24 98/181/141 95/176/77
f 83/158/69 101/186/83 100/184/20
f 101/186/83 113/201/142 112/200/33
f 107/194/86 116/205/112 115/204/87
f 89/165/91 88/164/53 73/142/17
f 80/151/95 86/162/139 84/159/55
f 79/150/22 88/164/53 89/165/91
f 49/108/44 52/112/8 53/113/60
f 56/118/100 55/116/103 49/108/44
f 56/118/100 68/135/144 67/134/40
f 76/146/38 77/147/67 74/143/92
f 112/200/33 113/201/142 110/197/104
f 107/194/86 106/192/30 103/188/28
f 109/196/31 110/197/104 104/190/108
f 67/134/40 68/135/144 62/128/109
f 96/178/11 115/204/87 116/205/112
f 92/170/116 91/168/46 58/121/52
f 32/74/1 49/108/44 55/116/103
